<mxfile host="app.diagrams.net" modified="2022-10-18T23:05:05.379Z" agent="5.0 (Windows NT 10.0; Win64; x64) AppleWebKit/537.36 (KHTML, like Gecko) Chrome/105.0.0.0 Safari/537.36 OPR/91.0.4516.72 (Edition std-1)" etag="A2ZtOVMnHW99QfD198eE" version="20.4.1" type="github">
  <diagram id="irrR2E8_Ee85ml6Polkn" name="PÃ¡gina-1">
    <mxGraphModel dx="997" dy="540" grid="1" gridSize="10" guides="1" tooltips="1" connect="1" arrows="1" fold="1" page="1" pageScale="1" pageWidth="827" pageHeight="1169" math="0" shadow="0">
      <root>
        <mxCell id="0" />
        <mxCell id="1" parent="0" />
        <mxCell id="DP-vHSamUo250GSvE7FE-8" value="" style="whiteSpace=wrap;html=1;aspect=fixed;" vertex="1" parent="1">
          <mxGeometry x="150" y="50" width="550" height="550" as="geometry" />
        </mxCell>
        <mxCell id="DP-vHSamUo250GSvE7FE-17" style="edgeStyle=orthogonalEdgeStyle;rounded=0;orthogonalLoop=1;jettySize=auto;html=1;" edge="1" parent="1" source="DP-vHSamUo250GSvE7FE-1" target="DP-vHSamUo250GSvE7FE-10">
          <mxGeometry relative="1" as="geometry" />
        </mxCell>
        <mxCell id="DP-vHSamUo250GSvE7FE-40" style="edgeStyle=orthogonalEdgeStyle;rounded=0;orthogonalLoop=1;jettySize=auto;html=1;entryX=0;entryY=0.5;entryDx=0;entryDy=0;" edge="1" parent="1" source="DP-vHSamUo250GSvE7FE-1" target="DP-vHSamUo250GSvE7FE-38">
          <mxGeometry relative="1" as="geometry" />
        </mxCell>
        <mxCell id="DP-vHSamUo250GSvE7FE-43" style="edgeStyle=orthogonalEdgeStyle;rounded=0;orthogonalLoop=1;jettySize=auto;html=1;entryX=0;entryY=0.5;entryDx=0;entryDy=0;" edge="1" parent="1" source="DP-vHSamUo250GSvE7FE-1" target="DP-vHSamUo250GSvE7FE-42">
          <mxGeometry relative="1" as="geometry" />
        </mxCell>
        <mxCell id="DP-vHSamUo250GSvE7FE-1" value="Cliente" style="shape=umlActor;verticalLabelPosition=bottom;verticalAlign=top;html=1;" vertex="1" parent="1">
          <mxGeometry x="50" y="140" width="30" height="60" as="geometry" />
        </mxCell>
        <mxCell id="DP-vHSamUo250GSvE7FE-18" style="edgeStyle=orthogonalEdgeStyle;rounded=0;orthogonalLoop=1;jettySize=auto;html=1;" edge="1" parent="1" source="DP-vHSamUo250GSvE7FE-10" target="DP-vHSamUo250GSvE7FE-13">
          <mxGeometry relative="1" as="geometry" />
        </mxCell>
        <mxCell id="DP-vHSamUo250GSvE7FE-10" value="" style="ellipse;whiteSpace=wrap;html=1;" vertex="1" parent="1">
          <mxGeometry x="240" y="80" width="120" height="70" as="geometry" />
        </mxCell>
        <mxCell id="DP-vHSamUo250GSvE7FE-11" value="Solicitar o pedido" style="text;html=1;strokeColor=none;fillColor=none;align=center;verticalAlign=middle;whiteSpace=wrap;rounded=0;" vertex="1" parent="1">
          <mxGeometry x="270" y="100" width="60" height="30" as="geometry" />
        </mxCell>
        <mxCell id="DP-vHSamUo250GSvE7FE-35" value="" style="edgeStyle=orthogonalEdgeStyle;rounded=0;orthogonalLoop=1;jettySize=auto;html=1;" edge="1" parent="1" source="DP-vHSamUo250GSvE7FE-13" target="DP-vHSamUo250GSvE7FE-28">
          <mxGeometry relative="1" as="geometry" />
        </mxCell>
        <mxCell id="DP-vHSamUo250GSvE7FE-36" style="edgeStyle=orthogonalEdgeStyle;rounded=0;orthogonalLoop=1;jettySize=auto;html=1;entryX=1;entryY=0.5;entryDx=0;entryDy=0;" edge="1" parent="1" source="DP-vHSamUo250GSvE7FE-13" target="DP-vHSamUo250GSvE7FE-16">
          <mxGeometry relative="1" as="geometry" />
        </mxCell>
        <mxCell id="DP-vHSamUo250GSvE7FE-37" style="edgeStyle=orthogonalEdgeStyle;rounded=0;orthogonalLoop=1;jettySize=auto;html=1;entryX=1;entryY=0.5;entryDx=0;entryDy=0;" edge="1" parent="1" source="DP-vHSamUo250GSvE7FE-13" target="DP-vHSamUo250GSvE7FE-19">
          <mxGeometry relative="1" as="geometry" />
        </mxCell>
        <mxCell id="DP-vHSamUo250GSvE7FE-44" style="edgeStyle=orthogonalEdgeStyle;rounded=0;orthogonalLoop=1;jettySize=auto;html=1;entryX=1;entryY=0.5;entryDx=0;entryDy=0;" edge="1" parent="1" source="DP-vHSamUo250GSvE7FE-13" target="DP-vHSamUo250GSvE7FE-41">
          <mxGeometry relative="1" as="geometry" />
        </mxCell>
        <mxCell id="DP-vHSamUo250GSvE7FE-13" value="Balconista" style="shape=umlActor;verticalLabelPosition=bottom;verticalAlign=top;html=1;" vertex="1" parent="1">
          <mxGeometry x="760" y="155" width="30" height="60" as="geometry" />
        </mxCell>
        <mxCell id="DP-vHSamUo250GSvE7FE-16" value="" style="ellipse;whiteSpace=wrap;html=1;" vertex="1" parent="1">
          <mxGeometry x="530" y="260" width="120" height="70" as="geometry" />
        </mxCell>
        <mxCell id="DP-vHSamUo250GSvE7FE-19" value="" style="ellipse;whiteSpace=wrap;html=1;" vertex="1" parent="1">
          <mxGeometry x="530" y="340" width="120" height="70" as="geometry" />
        </mxCell>
        <mxCell id="DP-vHSamUo250GSvE7FE-22" value="Verificar estoque" style="text;html=1;strokeColor=none;fillColor=none;align=center;verticalAlign=middle;whiteSpace=wrap;rounded=0;" vertex="1" parent="1">
          <mxGeometry x="560" y="280" width="60" height="30" as="geometry" />
        </mxCell>
        <mxCell id="DP-vHSamUo250GSvE7FE-23" value="Calcular valor total" style="text;html=1;strokeColor=none;fillColor=none;align=center;verticalAlign=middle;whiteSpace=wrap;rounded=0;" vertex="1" parent="1">
          <mxGeometry x="560" y="360" width="60" height="30" as="geometry" />
        </mxCell>
        <mxCell id="DP-vHSamUo250GSvE7FE-28" value="" style="ellipse;whiteSpace=wrap;html=1;" vertex="1" parent="1">
          <mxGeometry x="530" y="180" width="120" height="70" as="geometry" />
        </mxCell>
        <mxCell id="DP-vHSamUo250GSvE7FE-29" value="Verificar cadastro" style="text;html=1;strokeColor=none;fillColor=none;align=center;verticalAlign=middle;whiteSpace=wrap;rounded=0;" vertex="1" parent="1">
          <mxGeometry x="560" y="200" width="60" height="30" as="geometry" />
        </mxCell>
        <mxCell id="DP-vHSamUo250GSvE7FE-38" value="" style="ellipse;whiteSpace=wrap;html=1;" vertex="1" parent="1">
          <mxGeometry x="240" y="430" width="120" height="70" as="geometry" />
        </mxCell>
        <mxCell id="DP-vHSamUo250GSvE7FE-39" value="Receber pagamento" style="text;html=1;strokeColor=none;fillColor=none;align=center;verticalAlign=middle;whiteSpace=wrap;rounded=0;" vertex="1" parent="1">
          <mxGeometry x="270" y="450" width="60" height="30" as="geometry" />
        </mxCell>
        <mxCell id="DP-vHSamUo250GSvE7FE-41" value="Emitir nota fiscal" style="ellipse;whiteSpace=wrap;html=1;" vertex="1" parent="1">
          <mxGeometry x="530" y="515" width="120" height="70" as="geometry" />
        </mxCell>
        <mxCell id="DP-vHSamUo250GSvE7FE-42" value="Receber pedido" style="ellipse;whiteSpace=wrap;html=1;" vertex="1" parent="1">
          <mxGeometry x="240" y="515" width="120" height="70" as="geometry" />
        </mxCell>
      </root>
    </mxGraphModel>
  </diagram>
</mxfile>
